<?xml version="1.0"?>

<!DOCTYPE svg PUBLIC "-//W3C//DTD SVG 1.1//EN"
         "http://www.w3.org/Graphics/SVG/1.1/DTD/svg11.dtd">

  <svg
        version = "1.1"
    baseProfile = "full"
    xmlns       = "http://www.w3.org/2000/svg"
    xmlns:xlink = "http://www.w3.org/1999/xlink"
    xmlns:ev    = "http://www.w3.org/2001/xml-events"
         height = "450"
          width = "750"
        viewBox = "0 0 750 450"
   >

  <!-- This document is copyright under Creative Commons attribution-share alike license:
              http://creativecommons.org/licenses/by-sa/3.0/
       This notice and the metadata below must be retained as part of the document.
       Derivative works: please add metadata indicating alterations made to the document.
  -->

    <metadata>
      <rdf:RDF
        xmlns:rdf  = "http://www.w3.org/1999/02/22-rdf-syntax-ns#"
        xmlns:rdfs = "http://www.w3.org/2000/01/rdf-schema#"
        xmlns:dc   = "http://purl.org/dc/elements/1.1/"
        >
        <rdf:Description>
          <dc:title>
            Steam engine slide-valve cylinder animation
          </dc:title>
          <dc:description>
            A sectional diagram of a steam engine cylinder with a slide valve,
            animated to show the action of the valve, using colour and transparency
            to suggest the variation of steam temperature and pressure.
            This SVG file is a hand coded.
          </dc:description>
          <dc:format>
            image/svg+xml
          </dc:format>
          <dc:format>
            750 x 450 pixels
          </dc:format>
          <dc:date>
            2009-06-20
          </dc:date>
          <dc:lang>
            en
          </dc:lang>
          <dc:creator rdf:resource="http://commons.wikimedia.org/wiki/User:Globbet"/>
          <dc:rights rdf:resource="http://creativecommons.org/licenses/by-sa/3.0/"/>
        </rdf:Description>
      </rdf:RDF>
    </metadata>

    <title>
        Steam engine slide-valve cylinder animation
    </title>

    <!-- Specification:
             Bore: 150
           Stroke: 200
       Port Width:  15
              Lap:  15
             Lead:   1.5
           Travel:  50
      Exhaust lap:   2
           Cutoff:  60%
          Release:  90%
      Compression:  85%
    -->

    <style type="text/css">
      <![CDATA[
        .casting { stroke-width: 0; fill: #445; }
        .gasket  { stroke-width: 1; fill: darkgoldenrod; stroke: darkgoldenrod; }
        .edge    { stroke-width: 1; fill: none;          stroke: #aab; }
        .exhaust { stroke-width: 0; fill: #f00; fill-opacity: 0.2; }
        .steam   { stroke-width: 0; fill: #fd0; fill-opacity: 0.45; }
        .steel   { stroke-width: 0; fill: #99b; }
        .ground  { stroke-width: 0; fill: white; }
      ]]>
    </style>

    <defs>

      <linearGradient
        id = "SteelCylinder"
        x1 = "0%"
        y1 = "0%"
        x2 = "0%"
        y2 = "100%"
      >
        <stop
              offset =   "0%"
          stop-color = "#557"
        />
        <stop
              offset =  "35%"
          stop-color = "#dde"
        />
        <stop
              offset = "100%"
          stop-color = "#446"
        />
      </linearGradient>

      <path
           id = "CylinderGasket"
        class = "gasket"
            d = "M 0 0 v 25 M 0 200 v -25"
      />
      <path
           id = "ValveGasket"
        class = "gasket"
            d = "M   0 0 h 30
                 M 250 0 h 30"
      />

      <path
                  id = "Piston"
                fill = "url(#SteelCylinder)"
        stroke-width = "0"
                   d = "M -23 -75 v 150 h 46 v -150 z"
      />

      <rect
                  id = "PistonRod"
                fill = "url(#SteelCylinder)"
        stroke-width = "0"
                   x =    "0"
                   y =  "-13"
               width =  "302"
              height =   "26"
      />

      <rect
                  id = "ValveRod"
                fill = "url(#SteelCylinder)"
        stroke-width = "0"
                   x =   "0"
                   y = "-10"
               width = "200"
              height = "20"
      />

      <rect
                  id = "TailRod"
                fill = "url(#SteelCylinder)"
        stroke-width = "0"
                   x =   "0"
                   y = "-10"
               width = "95"
              height = "20"
      />

      <path
                  id = "Valve"
               class = "casting"
        stroke-width = "0"
                   d = "M -65 0 h 32 v -5 a 20 20 0 0 1 20 -20 h 26 a 20 20 0 0 1 20 20
                        v 5 h 32 v -10 h -15 v -40 h -100 v 40 h -15 z"
      />

      <rect
                  id = "ValveBuckle"
               class = "steel"
                   x = "-10"
                   y = "-17.5"
               width =  "20"
              height =  "35"
      />

      <!-- this is needed to cover the underlying layers -->
      <rect
            id = "ValveCavity"
         class = "ground"
             x = "-35"
             y = "-25"
         width =  "70"
        height =  "25"
      />

      <rect
                  id = "ValveSteam"
                fill = "#f00"
        fill-opacity = "0.2"
                   x = "-35"
                   y = "-25"
               width =  "70"
              height =  "25"
      >
        <animate
          attributeName = "fill-opacity"
                    dur = "3s"
            repeatCount = "indefinite"
                 values = "0.2;  0.2;  0.2;  0.2;  0.2; 0.2;
                           0.35; 0.3;  0.2;  0.2;  0.2; 0.2;
                           0.2;  0.2;  0.2;  0.35; 0.3; 0.2;
                           0.2"
        />
        <animate
          attributeName = "fill"
                    dur = "3s"
            repeatCount = "indefinite"
                 values = "#f00; #f00; #f00; #f00; #f00; #f00;
                           #f70; #f40; #f00; #f00; #f00; #f00;
                           #f00; #f00; #f00; #f70; #f40; #f00;
                           #f00"
        />
      </rect>

      <g
        id = "PistonAssy"
      >
        <use xlink:href = "#Piston"    x = "0"  y = "0"/>
        <use xlink:href = "#PistonRod" x = "23" y = "0"/>
      </g>

      <g
        id = "ValveAssy"
      >
        <use xlink:href = "#TailRod"     x = "-165" y =  "0"/>
        <use xlink:href = "#ValveRod"    x =   "70" y =  "0"/>
        <use xlink:href = "#ValveBuckle" x =  "-60" y =  "0"/>
        <use xlink:href = "#ValveBuckle" x =   "60" y =  "0"/>
        <use xlink:href = "#ValveCavity" x =    "0" y = "30"/>
        <use xlink:href = "#ValveSteam"  x =    "0" y = "30"/>
        <use xlink:href = "#Valve"       x =    "0" y = "30"/>
      </g>

    </defs>

    <!-- layer 1 - background for transparent layers above -->

    <path
         id = "Background"
      class = "ground"
          d = "M 170 70 h 115 v -6 h 30 v 6 h 115 v 280 h -260 v -215 h -75 v -30 h 75 z"
    />


    <!-- layer 2 - to show through the steam -->

    <path
         id = "Edges"
      class = "edge"
          d = "M 190.5 200 v 35
               M 409.5 200 v 35
               M 279.5 175 a 10 10 0 0 1 10 -10 h 21 a 10 10 0 0 1 10 10
               M 250 150.5 h 100
               M 285 64.5 h 30
               M 285 83.5 h 30"
    />

    <circle
         id = "SteamInlet"
      class = "edge"
         cx = "230"
         cy = "120"
          r = "20"
    />

    <!-- Layer 3 - steam -->

    <path
         id = "InletSteam"
      class = "steam"
          d = "M 190 84 v 71 h 25 v -5 h 170 v 5 h 25 v -71 z"
    />

    <path
         id = "GuideSteam"
      class = "steam"
          d = "M 190 110 h -85 a 10 10 0 0 0 0 20 h 85 z"
    />

    <path
                id = "ExhaustSteam"
              fill = "#f00"
      fill-opacity = "0.2"
                 d = "M 280 150 v 25 a 10 10 0 0 0 10 10 h 20 a 10 10 0 0 0 10 -10 v -25 z"
    >
        <animate
          attributeName = "fill-opacity"
                    dur = "3s"
            repeatCount = "indefinite"
                 values = "0.2;  0.2;  0.2;  0.2;  0.2; 0.2;
                           0.35; 0.3;  0.2;  0.2;  0.2; 0.2;
                           0.2;  0.2;  0.2;  0.35; 0.3; 0.2;
                           0.2"
        />
        <animate
          attributeName = "fill"
                    dur = "3s"
            repeatCount = "indefinite"
                 values = "#f00; #f00; #f00; #f00; #f00; #f00;
                           #f70; #f40; #f00; #f00; #f00; #f00;
                           #f00; #f00; #f00; #f70; #f40; #f00;
                           #f00"
      />
    </path>

    <g
                id = "LeftSteam"
              fill = "#fd0"
      fill-opacity = "0.45"
    >
      <path
        id = "LeftPortSteam"
         d = "M 250 150 v 10 a 10 10 0 0 1 -10 10 h -40 a 25 25 0 0 0 -25 25 v 5
              h 15 v -5 a 10 10 0 0 1 10 -10 h 40 a 25 25 0 0 0 25 -25 v -10 z"
      />
      <rect
            id = "LeftCylinderSteam"
             x = "175"
             y = "200"
         width =  "25.396"
        height = "150"
      >
        <animate
          attributeName = "width"
                    dur = "3s"
            repeatCount = "indefinite"
                 values = " 25.396;  52.000;  84.635; 119.365; 152.000; 178.604;
                           195.969; 202.000; 195.969; 178.604; 152.000; 119.365;
                            84.635;  52.000;  25.396;   8.031;   2.000;   8.031;
                            25.396"
        />
      </rect>
      <animate
        attributeName = "fill"
                  dur = "3s"
          repeatCount = "indefinite"
               values = "#fd0; #fd0; #fd0; #fc0; #fb0; #f90;
                         #f70; #f40; #f00; #f00; #f00; #f00;
                         #f00; #f00; #f00; #f90; #fb0; #fd0;
                         #fd0"
      />
      <animate
        attributeName = "fill-opacity"
                  dur = "3s"
          repeatCount = "indefinite"
               values = "0.45; 0.45; 0.45; 0.45; 0.45; 0.4;
                         0.35; 0.3;  0.2;  0.2;  0.2;  0.2;
                         0.2;  0.2;  0.2;  0.3;  0.4;  0.45;
                         0.45"
      />
    </g>

    <g
      id = "RightSteam"
              fill = "#f00"
      fill-opacity = "0.2"
    >
      <path
        id = "RightPortSteam"
         d = "M 350 150 v 10 a 10 10 0 0 0 10 10 h 40 a 25 25 0 0 1 25 25 v 5
              h -15 v -5 a 10 10 0 0 0 -10 -10 h -40 a 25 25 0 0 1 -25 -25 v -10 z"
      />
      <rect
            id = "RightCylinderSteam"
             x = "246.396"
             y = "200"
         width = "178.604"
        height = "150"
      >
        <animate
          attributeName = "x"
                    dur = "3s"
            repeatCount = "indefinite"
                 values = "246.396; 273.000; 305.635; 340.365; 373.000; 399.604;
                           416.969; 423.000; 416.969; 399.604; 373.000; 340.365;
                           305.635; 273.000; 246.396; 229.031; 223.000; 229.031;
                           246.396"
        />
        <animate
          attributeName = "width"
                    dur = "3s"
            repeatCount = "indefinite"
                 values = "178.604; 152.000; 119.365;  84.635;  52.000;  25.396;
                             8.031;   2.000;   8.031;  25.396;  52.000;  84.635;
                           119.365; 152.000; 178.604; 195.969; 202.000; 195.969;
                           178.604"
        />
      </rect>
      <animate
        attributeName = "fill"
                  dur = "3s"
          repeatCount = "indefinite"
               values = "#f00; #f00; #f00; #f00; #f00; #f00;
                         #f90; #fb0; #fd0; #fd0; #fd0; #fd0;
                         #fc0; #fb0; #f90; #f70; #f40; #f00;
                         #f00"
      />
      <animate
        attributeName = "fill-opacity"
                  dur = "3s"
          repeatCount = "indefinite"
               values = "0.2;  0.2;  0.2;  0.2;  0.2;  0.2;
                         0.3;  0.4;  0.45; 0.45; 0.45; 0.45;
                         0.45; 0.45; 0.4;  0.35; 0.3;  0.2;
                         0.2"
      />
    </g>

    <!-- Layer 4 - static parts -->

    <path
         id="Portface"
      class="casting"
          d="M 160 155 v 45 h 15 v -5 a 25 25 0 0 1 25 -25 h 40 a 10 10 0 0 0 10 -10
             v -10 h -35 a 5 5 0 0 1 -5 5 z
             M 440 155 v 45 h -15 v -5 a 25 25 0 0 0 -25 -25 h -40 a 10 10 0 0 1 -10 -10
             v -10 h 35 a 5 5 0 0 0 5 5 z
             M 190 200 v -5 a 10 10 0 0 1 10 -10 h 40 a 25 25 0 0 0 25 -25 v -10
             h 15 v 25 a 10 10 0 0 0 10 10 h 20 a 10 10 0 0 0 10 -10 v -25 h 15
             v 10 a 25 25 0 0 0 25 25 h 40 a 10 10 0 0 1 10 10 v 5 z"
    />
    <path
         id="CylinderWall"
      class="casting"
          d="M 160 350 v 25 h 30 a 10 10 0 0 1 10 -10 h 45 a 10 10 0 0 1 10 10
               h 13 a 10 10 0 0 1 10 -10 h 44 a 10 10 0 0 1 10 10
               h 13 a 10 10 0 0 1 10 -10 h 45 a 10 10 0 0 1 10 10
               h 30 v -25 z"
    />
    <path
         id="FrontCover"
      class="casting"
          d="M 144 175 v 35 a 10 10 0 0 0 10 10 a 5 5 0 0 1 5 5 v 100 a 5 5 0 0 1 -5 5
               a 10 10 0 0 0 -10 10 v 35 h 15 v -25 h 16 v -150 h -16 v -25 z"
    />

    <path
         id="BackCover"
      class="casting"
          d="M 441 175 v 25 h -16 v 62 h 51 v -17 h -30 a 5 5 0 0 1 -5 -5 v -15
               a 5 5 0 0 1 5 -5 a 10 10 0 0 0 10 -10 v -35 z
             M 441 375 v -25 h -16 v -62 h 51 v 17 h -30 a 5 5 0 0 0 -5 5 v 15
               a 5 5 0 0 0 5 5 a 10 10 0 0 1 10 10 v 35 z"
    />

    <path
         id="ValveChestCover"
      class="casting"
          d="M 160 64 v 20 h 280 v -20 z"
    />

    <path
         id="ValveChestBack"
      class="casting"
          d="M 160 85 v 10 a 5 5 0 0 1 -5 5 h -50 a 20 20 0 0 0 0 40 h 50
               a 5 5 0 0 1 5 5 v 10 h 35 a 5 5 0 0 1 -5 -5 v -20 h -85
               a 10 10 0 0 1 0 -20 h 85 v -25 z"
    />

    <path
         id="ValveChestGland"
      class="casting"
          d="M 410 85 v 25 h 75 v -15 h -40 a 5 5 0 0 1 -5 -5 v -5 z
             M 410 155 v -25 h 75 v 15 h -40 a 5 5 0 0 0 -5 5 v 5 h -35 a 5 5 0 0 0 5 -5 z"
    />

    <use xlink:href="#CylinderGasket"     x = "159.5"   y = "175"/>
    <use xlink:href="#CylinderGasket"     x = "440.5"   y = "175"/>
    <use xlink:href="#ValveGasket"        x = "160"     y =  "84.5"/>


    <!-- Layer 5 - moving parts -->

    <use xlink:href="#PistonAssy"         x = "223.396" y = "275">
      <animate
        attributeName = "x"
                  dur = "3s"
          repeatCount = "indefinite"
               values = "223.396; 250.000; 282.635; 317.365; 350.000; 376.604;
                         393.969; 400.000; 393.969; 376.604; 350.000; 317.365;
                         282.635; 250.000; 223.396; 206.031; 200.000; 206.031;
                         223.396"
      />
    </use>
    <use xlink:href="#ValveAssy" x = "324.732" y = "120">
      <animate
        attributeName = "x"
                  dur = "3s"
          repeatCount = "indefinite"
               values = "324.732; 324.489; 321.293; 315.529; 307.891; 299.302;
                         290.797; 283.402; 278.009; 275.268; 275.511; 278.707;
                         284.471; 292.109; 300.698; 309.203; 316.598; 321.991;
                         324.732"
      />
    </use>

</svg>
